<?xml version="1.0" standalone="no"?><!DOCTYPE svg PUBLIC "-//W3C//DTD SVG 1.1//EN" "http://www.w3.org/Graphics/SVG/1.1/DTD/svg11.dtd"><svg t="1584153026557" class="icon" viewBox="0 0 1024 1024" version="1.1" xmlns="http://www.w3.org/2000/svg" p-id="2061" width="300" height="300" xmlns:xlink="http://www.w3.org/1999/xlink"><defs><style type="text/css"></style></defs><path d="M510.1 149.7c-141.5 0-256.3 114.7-256.3 256.3 0 119 181.3 370.7 238.9 447.6 8.7 11.6 26 11.6 34.7 0C585 776.6 766.3 525 766.3 406c0-141.6-114.7-256.3-256.2-256.3z m15.4 603.4c-6.6 8.9-19.9 8.9-26.6 0-44.1-58.9-183-251.6-183-342.8 0-108.4 87.9-196.3 196.3-196.3s196.3 88 196.3 196.3c0 91.2-138.9 283.9-183 342.8z" fill="#8a8a8a" p-id="2062"></path><path d="M512.1 300c-68.2 0-123.5 55.3-123.5 123.5S443.9 547 512.1 547s123.5-55.3 123.5-123.5S580.3 300 512.1 300z m0 188.9c-36.1 0-65.3-29.2-65.3-65.3s29.2-65.3 65.3-65.3 65.3 29.2 65.3 65.3-29.2 65.3-65.3 65.3z" fill="#8a8a8a" p-id="2063"></path></svg>